<svg width="54" height="38" viewBox="0 0 54 38" fill="none" xmlns="http://www.w3.org/2000/svg">
<path d="M14.6406 27.8594C14.1354 27.8438 13.6979 27.7266 13.3281 27.5078C12.9583 27.2891 12.651 27 12.4062 26.6406C12.1719 26.2969 11.9948 25.9115 11.875 25.4844C11.7552 25.0625 11.6953 24.6432 11.6953 24.2266V22.9062C11.6953 22.1562 11.5156 21.612 11.1562 21.2734C10.8021 20.9349 10.2578 20.763 9.52344 20.7578V19.625C10.2578 19.625 10.8021 19.4583 11.1562 19.125C11.5156 18.7865 11.6953 18.2396 11.6953 17.4844V16.1562C11.6953 15.7344 11.75 15.3047 11.8594 14.8672C11.974 14.4245 12.1536 14.0286 12.3984 13.6797C12.6276 13.3464 12.9271 13.0755 13.2969 12.8672C13.6667 12.6536 14.1146 12.5391 14.6406 12.5234L14.8047 13.4219C14.4297 13.4323 14.1302 13.5208 13.9062 13.6875C13.6875 13.8542 13.5234 14.0651 13.4141 14.3203C13.2995 14.5807 13.2266 14.8724 13.1953 15.1953C13.1641 15.5182 13.1484 15.8385 13.1484 16.1562V17.4844C13.1484 18.1094 13.0026 18.6589 12.7109 19.1328C12.4245 19.6016 11.9792 19.9583 11.375 20.2031C11.9792 20.4427 12.4245 20.7995 12.7109 21.2734C12.9974 21.7422 13.1432 22.2865 13.1484 22.9062V24.2266C13.1484 24.5495 13.1745 24.8698 13.2266 25.1875C13.2786 25.5104 13.3698 25.7995 13.5 26.0547C13.625 26.3151 13.7917 26.5286 14 26.6953C14.2135 26.862 14.4818 26.9505 14.8047 26.9609L14.6406 27.8594Z" fill="#F8F5EC"/>
<path d="M39.5234 26.9609C39.8411 26.9505 40.1068 26.862 40.3203 26.6953C40.5339 26.5286 40.7057 26.3151 40.8359 26.0547C40.9609 25.7995 41.0495 25.5104 41.1016 25.1875C41.1589 24.8698 41.1875 24.5495 41.1875 24.2266V22.9062C41.1875 22.4948 41.2474 22.1146 41.3672 21.7656C41.4922 21.4167 41.6823 21.1146 41.9375 20.8594C42.0729 20.724 42.224 20.6016 42.3906 20.4922C42.5625 20.3828 42.75 20.2865 42.9531 20.2031C42.7448 20.1198 42.5521 20.0208 42.375 19.9062C42.2031 19.7917 42.0521 19.6641 41.9219 19.5234C41.6719 19.263 41.487 18.9609 41.3672 18.6172C41.2474 18.2682 41.1875 17.8906 41.1875 17.4844V16.1562C41.1875 15.8385 41.1693 15.5182 41.1328 15.1953C41.1016 14.8724 41.0312 14.5807 40.9219 14.3203C40.8073 14.0651 40.6406 13.8542 40.4219 13.6875C40.2031 13.5208 39.9062 13.4323 39.5312 13.4219L39.6875 12.5234C40.1927 12.5391 40.625 12.6458 40.9844 12.8438C41.349 13.0417 41.6484 13.2995 41.8828 13.6172C42.1484 13.9766 42.3385 14.3802 42.4531 14.8281C42.5729 15.276 42.6328 15.7188 42.6328 16.1562V17.4844C42.6328 17.7969 42.6615 18.0729 42.7188 18.3125C42.7812 18.5469 42.8724 18.75 42.9922 18.9219C43.1641 19.1667 43.401 19.3464 43.7031 19.4609C44.0104 19.5703 44.3776 19.625 44.8047 19.625V20.7578C44.4297 20.763 44.1016 20.8099 43.8203 20.8984C43.5443 20.9818 43.3177 21.1146 43.1406 21.2969C42.9688 21.474 42.8411 21.6953 42.7578 21.9609C42.6745 22.2266 42.6328 22.5417 42.6328 22.9062V24.2266C42.6328 24.6432 42.5755 25.0625 42.4609 25.4844C42.3464 25.9115 42.1693 26.2995 41.9297 26.6484C41.6849 26.9974 41.3776 27.2839 41.0078 27.5078C40.638 27.7318 40.1979 27.849 39.6875 27.8594L39.5234 26.9609Z" fill="#F8F5EC"/>
<path d="M33.1745 35H40.6913L51 20.3285L40.6913 5H33.1745L19.2148 35H12.3423L3 20.3285L12.3423 5H19.2148" stroke="#262E34" stroke-opacity="0.8" stroke-width="4" stroke-linecap="round"/>
</svg>
