<svg width="61" height="60" viewBox="0 0 61 60" fill="none" xmlns="http://www.w3.org/2000/svg">
<path d="M59.3822 27.3573L33.1506 1.12561C31.6497 -0.375204 29.1701 -0.375204 27.6693 1.12561L22.2533 6.5416L29.1701 13.4584C30.8015 12.9364 32.6285 13.2626 33.8683 14.5677C35.1734 15.8728 35.4997 17.6998 34.9776 19.3312L41.6334 25.9869C43.2647 25.4649 45.0918 25.7912 46.3969 27.0962C48.224 28.8581 48.224 31.7945 46.3969 33.6215C44.5698 35.4486 41.6987 35.4486 39.8716 33.6215C38.5013 32.2512 38.175 30.2936 38.8928 28.5971L32.6938 22.398V38.7113C33.1506 38.907 33.5421 39.2333 33.9336 39.5595C35.7607 41.3214 35.7607 44.2577 33.9336 46.0848C32.1065 47.8467 29.2354 47.8467 27.4083 46.0848C25.5812 44.2577 25.5812 41.3866 27.4083 39.5595C27.8651 39.1028 28.3871 38.7765 28.9091 38.5807V22.0718C28.3871 21.876 27.8651 21.4845 27.4083 21.093C26.038 19.7227 25.7117 17.7651 26.4295 16.0685L19.578 9.28222L1.63342 27.2268C0.132609 28.7276 0.132609 31.2072 1.63342 32.708L27.7998 58.8744C29.3006 60.3752 31.7802 60.3752 33.2811 58.8744L59.317 32.8385C60.883 31.2724 60.883 28.8581 59.3822 27.3573Z" fill="#89BCD9"/>
</svg>
