<svg width="24" height="14" viewBox="0 0 24 14" fill="none" xmlns="http://www.w3.org/2000/svg">
<path d="M0.872 14V0.985999H4.418C5.702 0.985999 6.794 1.184 7.694 1.58C8.606 1.976 9.338 2.498 9.89 3.146C10.442 3.794 10.844 4.514 11.096 5.306C11.36 6.086 11.492 6.866 11.492 7.646C11.492 8.63 11.318 9.512 10.97 10.292C10.634 11.072 10.166 11.738 9.566 12.29C8.966 12.842 8.276 13.268 7.496 13.568C6.728 13.856 5.912 14 5.048 14H0.872ZM2.618 12.326H4.706C5.426 12.326 6.086 12.218 6.686 12.002C7.298 11.786 7.826 11.474 8.27 11.066C8.726 10.658 9.08 10.16 9.332 9.572C9.584 8.972 9.71 8.294 9.71 7.538C9.71 6.734 9.578 6.032 9.314 5.432C9.05 4.82 8.69 4.31 8.234 3.902C7.778 3.494 7.262 3.188 6.686 2.984C6.11 2.768 5.504 2.66 4.868 2.66H2.618V12.326ZM14.4247 0.985999H22.8847V2.66H16.1707V6.62H22.1647V8.294H16.1707V12.326H23.1367V14H14.4247V0.985999Z" fill="#262E34"/>
</svg>
