<svg width="600" height="601" viewBox="0 0 600 601" fill="none" xmlns="http://www.w3.org/2000/svg">
<path opacity="0.8" d="M600 302.538C600 379.732 594.163 410.759 563.472 458.502C549.179 480.737 527.937 499.812 507 517.489C497 526.489 486.763 535.361 476 542.989C424.5 579.488 367.447 599.378 300.45 599.988C245 600.492 193 585.488 147.5 558.489C134.966 551.051 123.212 542.844 111.5 533.989C108.628 531.818 105.794 529.207 103 526.989C75.7474 505.359 52.3226 481.873 35.3656 454.488C-10.0186 362.673 -1.25172 303.47 5.45338 256.81C12.1585 210.15 8.72524 168.936 47.2279 117.331C103.607 41.7661 148.222 13.0448 240.537 0C321.04 0 398.439 7.95553 461.358 33.0416C538.718 73.6811 552.643 117.331 563.988 139.407C579.405 169.403 600 225.345 600 302.538Z" fill="#89BCD9"/>
</svg>
