<svg width="30" height="30" viewBox="0 0 30 30" fill="none" xmlns="http://www.w3.org/2000/svg">
<path d="M0.750002 15.4805V15.4809C0.748386 18.4722 1.68878 21.3882 3.43777 23.815C5.1744 26.2246 7.62066 28.0305 10.4337 28.9807C10.4808 28.9863 10.5148 28.9861 10.5375 28.9844C10.5373 28.8626 10.5351 28.6522 10.5322 28.3756C10.5308 28.2465 10.5293 28.103 10.5278 27.9474C10.5252 27.6833 10.5226 27.387 10.5207 27.0725C8.99554 27.2343 7.88562 27.0078 7.07914 26.5555C6.12418 26.0199 5.71231 25.2339 5.52313 24.7076C5.4581 24.5461 5.26303 24.1595 5.00504 23.7671C4.87606 23.5709 4.74124 23.3885 4.61119 23.2415C4.47777 23.0908 4.37933 23.0117 4.32506 22.9801C4.15361 22.8877 3.96793 22.7648 3.80338 22.6262C3.65274 22.4994 3.44576 22.2987 3.32766 22.0397C3.26484 21.9019 3.20257 21.6934 3.24522 21.4494C3.29143 21.1851 3.44255 20.9823 3.62352 20.8493C3.92513 20.6278 4.32471 20.5853 4.65725 20.5805C5.49368 20.5673 6.16964 20.9528 6.64123 21.3487C7.11462 21.7462 7.4442 22.2043 7.61052 22.4697L7.61508 22.477L7.61947 22.4844C8.1689 23.4074 8.82889 23.6842 9.41105 23.7377C9.87115 23.78 10.3229 23.6841 10.6786 23.5631C10.7526 23.2321 10.8554 22.9309 10.9809 22.6605C9.63444 22.4012 8.26872 21.9227 7.15228 20.9806C5.65492 19.7172 4.725 17.7253 4.725 14.693C4.725 13.0383 5.26297 11.6286 6.16723 10.4967C5.95081 9.72718 5.73167 8.24362 6.46614 6.40743L6.59846 6.07664L6.93845 5.97021L7.1625 6.68597C6.93845 5.97021 6.93918 5.96999 6.93991 5.96976L6.94139 5.9693L6.94444 5.96837L6.95092 5.96643L6.96534 5.9623C6.97561 5.95944 6.98718 5.9564 7.00007 5.95327C7.02585 5.947 7.05682 5.94036 7.09305 5.93403C7.1656 5.92137 7.25869 5.91005 7.37282 5.90538C7.60154 5.89601 7.91097 5.91346 8.30518 5.99742C9.04127 6.1542 10.0678 6.54162 11.42 7.41404C12.6024 7.11559 13.8179 6.96564 15.0382 6.96797M0.750002 15.4805H29.25C29.2491 18.4662 28.3121 21.3765 26.5706 23.8018C24.8398 26.2122 22.4011 28.023 19.594 28.9827C19.5522 28.989 19.5213 28.9902 19.5 28.9895C19.5001 28.8213 19.5022 28.5369 19.505 28.1575C19.5065 27.9637 19.5081 27.7451 19.5097 27.5045C19.5146 26.7864 19.5195 25.8801 19.5195 24.875C19.5195 23.996 19.3544 23.2553 19.0785 22.6608C20.4246 22.4032 21.7928 21.9284 22.9121 20.9893C24.4152 19.7282 25.35 17.7356 25.35 14.693C25.35 13.021 24.8102 11.625 23.9079 10.4979C24.1242 9.72832 24.3432 8.2449 23.6089 6.40892L23.4791 6.08444L23.1471 5.97511L22.9125 6.68747C23.1471 5.97511 23.1464 5.97487 23.1457 5.97463L23.1442 5.97414L23.1411 5.97315L23.1346 5.97109L23.12 5.9667C23.1097 5.96367 23.098 5.96043 23.0851 5.95708C23.0591 5.95038 23.0279 5.94325 22.9914 5.93639C22.9183 5.92266 22.8246 5.91013 22.7097 5.90423C22.4794 5.89242 22.1683 5.90748 21.7724 5.99C21.0336 6.14403 20.0057 6.53162 18.654 7.41147C17.4848 7.11476 16.2599 6.96803 15.0382 6.96797M0.750002 15.4805C0.750002 7.60718 7.12672 1.23047 15 1.23047M0.750002 15.4805L15 1.23047M15.0382 6.96797C15.038 6.96797 15.0377 6.96797 15.0375 6.96797V7.71797L15.039 6.96797C15.0387 6.96797 15.0385 6.96797 15.0382 6.96797ZM15 1.23047C22.8732 1.23047 29.2499 7.60707 29.25 15.4803L15 1.23047Z" stroke="#262E34" stroke-opacity="0.6" stroke-width="1.5"/>
</svg>
