<svg width="30" height="30" viewBox="0 0 30 30" fill="none" xmlns="http://www.w3.org/2000/svg">
<path d="M15 0.371094C6.7125 0.371094 2.18932e-06 7.08359 2.18932e-06 15.3711C-0.00169914 18.52 0.988222 21.5895 2.82933 24.1441C4.67043 26.6987 7.26922 28.6087 10.257 29.6031C11.007 29.7336 11.2875 29.2836 11.2875 28.8891C11.2875 28.5336 11.268 27.3531 11.268 26.0961C7.5 26.7906 6.525 25.1781 6.225 24.3336C6.0555 23.9016 5.325 22.5711 4.6875 22.2141C4.1625 21.9336 3.4125 21.2391 4.668 21.2211C5.85 21.2016 6.693 22.3086 6.975 22.7586C8.325 25.0266 10.482 24.3891 11.343 23.9961C11.475 23.0211 11.868 22.3656 12.3 21.9906C8.9625 21.6156 5.475 20.3211 5.475 14.5836C5.475 12.9516 6.0555 11.6031 7.0125 10.5516C6.8625 10.1766 6.3375 8.63909 7.1625 6.57659C7.1625 6.57659 8.418 6.18359 11.2875 8.11559C12.5086 7.77668 13.7703 7.60611 15.0375 7.60859C16.3125 7.60859 17.5875 7.77659 18.7875 8.11409C21.6555 6.16409 22.9125 6.57809 22.9125 6.57809C23.7375 8.64059 23.2125 10.1781 23.0625 10.5531C24.018 11.6031 24.6 12.9336 24.6 14.5836C24.6 20.3406 21.0945 21.6156 17.757 21.9906C18.3 22.4586 18.7695 23.3586 18.7695 24.7656C18.7695 26.7711 18.75 28.3836 18.75 28.8906C18.75 29.2836 19.032 29.7516 19.782 29.6016C22.7595 28.5963 25.3469 26.6826 27.1799 24.1298C29.0128 21.5771 29.9991 18.5138 30 15.3711C30 7.08359 23.2875 0.371094 15 0.371094Z" fill="#F8F5EC"/>
</svg>
